# xmcd
#
# Track frame offsets: 
#        150
#        23092
#        41300
#        62225
#
# Disc length: 1047 seconds
#
# Revision: 3
# Processed by: cddbd v1.5.2PL0 Copyright (c) Steve Scherf et al.
# Submitted via: ExactAudioCopy v1.3
#
DISCID=29041504
DTITLE=Usher - Rhythm City Volume 1: Caught Up
DYEAR=2005
DGENRE=Pop
TTITLE0=Dot Com
TTITLE1=Doin The Most
TTITLE2=It Is What It Is
TTITLE3=What You Need (Hidden Track)
EXTD=
EXTT0=
EXTT1=
EXTT2=
EXTT3=
PLAYORDER=
